#define mic_width 48
#define mic_height 48
static char mic_bits[] = {
  0x00, 0x00, 0x00, 0x00, 0x00, 0x00, 0x00, 0x00, 0x00, 0x00, 0x00, 0x00, 
  0x00, 0x00, 0x00, 0x00, 0x00, 0x00, 0x00, 0x00, 0x00, 0x00, 0x00, 0x00, 
  0x00, 0x00, 0xC0, 0x03, 0x00, 0x00, 0x00, 0x00, 0xF0, 0x0F, 0x00, 0x00, 
  0x00, 0x00, 0xF0, 0x0F, 0x00, 0x00, 0x00, 0x00, 0x78, 0x1E, 0x00, 0x00, 
  0x00, 0x00, 0x38, 0x1C, 0x00, 0x00, 0x00, 0x00, 0x38, 0x1C, 0x00, 0x00, 
  0x00, 0x00, 0x38, 0x1C, 0x00, 0x00, 0x00, 0x00, 0x38, 0x1C, 0x00, 0x00, 
  0x00, 0x00, 0x38, 0x1C, 0x00, 0x00, 0x00, 0x00, 0x38, 0x1C, 0x00, 0x00, 
  0x00, 0x00, 0x38, 0x1C, 0x00, 0x00, 0x00, 0x00, 0x38, 0x1C, 0x00, 0x00, 
  0x00, 0x00, 0x38, 0x1C, 0x00, 0x00, 0x00, 0x00, 0x38, 0x1C, 0x00, 0x00, 
  0x00, 0x00, 0x38, 0x1C, 0x00, 0x00, 0x00, 0x00, 0x38, 0x1C, 0x00, 0x00, 
  0x00, 0x00, 0x38, 0x1C, 0x00, 0x00, 0x00, 0x1C, 0x38, 0x1C, 0x38, 0x00, 
  0x00, 0x1C, 0x38, 0x1C, 0x38, 0x00, 0x00, 0x1C, 0x78, 0x1E, 0x38, 0x00, 
  0x00, 0x1C, 0xF0, 0x0F, 0x3C, 0x00, 0x00, 0x38, 0xE0, 0x07, 0x1C, 0x00, 
  0x00, 0x38, 0xC0, 0x03, 0x1C, 0x00, 0x00, 0x78, 0x00, 0x00, 0x1E, 0x00, 
  0x00, 0xF0, 0x00, 0x00, 0x0F, 0x00, 0x00, 0xE0, 0x01, 0x80, 0x07, 0x00, 
  0x00, 0xE0, 0x03, 0xC0, 0x07, 0x00, 0x00, 0xC0, 0x0F, 0xF0, 0x03, 0x00, 
  0x00, 0x00, 0xFF, 0xFF, 0x00, 0x00, 0x00, 0x00, 0xFE, 0x7F, 0x00, 0x00, 
  0x00, 0x00, 0xF8, 0x1F, 0x00, 0x00, 0x00, 0x00, 0xC0, 0x03, 0x00, 0x00, 
  0x00, 0x00, 0xC0, 0x03, 0x00, 0x00, 0x00, 0x00, 0xC0, 0x03, 0x00, 0x00, 
  0x00, 0x00, 0xC0, 0x03, 0x00, 0x00, 0x00, 0x00, 0xC0, 0x03, 0x00, 0x00, 
  0x00, 0x00, 0xC0, 0x03, 0x00, 0x00, 0x00, 0x00, 0xC0, 0x03, 0x00, 0x00, 
  0x00, 0x00, 0x00, 0x00, 0x00, 0x00, 0x00, 0x00, 0x00, 0x00, 0x00, 0x00, 
  0x00, 0x00, 0x00, 0x00, 0x00, 0x00, 0x00, 0x00, 0x00, 0x00, 0x00, 0x00, 
  0x00, 0x00, 0x00, 0x00, 0x00, 0x00, 0x00, 0x00, 0x00, 0x00, 0x00, 0x00, 
  };
