#define mic_off_width 48
#define mic_off_height 48
static char mic_off_bits[] = {
  0x00, 0x00, 0x00, 0x00, 0x00, 0x00, 0x00, 0x00, 0x00, 0x00, 0x00, 0x00, 
  0x00, 0x00, 0x00, 0x00, 0x00, 0x00, 0x00, 0x00, 0x00, 0x00, 0x00, 0x00, 
  0x18, 0x00, 0xE0, 0x01, 0x00, 0x00, 0x3C, 0x00, 0xF0, 0x07, 0x00, 0x00, 
  0x78, 0x00, 0xF8, 0x0F, 0x00, 0x00, 0xF0, 0x00, 0x3C, 0x0F, 0x00, 0x00, 
  0xE0, 0x01, 0x1C, 0x0E, 0x00, 0x00, 0xC0, 0x03, 0x1C, 0x0E, 0x00, 0x00, 
  0x80, 0x07, 0x1C, 0x0E, 0x00, 0x00, 0x00, 0x0F, 0x1C, 0x0E, 0x00, 0x00, 
  0x00, 0x1E, 0x1C, 0x0E, 0x00, 0x00, 0x00, 0x3C, 0x1C, 0x0E, 0x00, 0x00, 
  0x00, 0x78, 0x18, 0x0E, 0x00, 0x00, 0x00, 0xF0, 0x10, 0x0E, 0x00, 0x00, 
  0x00, 0xE0, 0x01, 0x0E, 0x00, 0x00, 0x00, 0xC0, 0x03, 0x0E, 0x00, 0x00, 
  0x00, 0x80, 0x07, 0x0E, 0x00, 0x00, 0x00, 0x00, 0x0F, 0x0E, 0x00, 0x00, 
  0x00, 0x00, 0x1E, 0x0E, 0x00, 0x00, 0x00, 0x0C, 0x3C, 0x0C, 0x18, 0x00, 
  0x00, 0x0E, 0x78, 0x08, 0x1C, 0x00, 0x00, 0x0E, 0xF0, 0x00, 0x1C, 0x00, 
  0x00, 0x1E, 0xE0, 0x01, 0x1C, 0x00, 0x00, 0x1C, 0xC0, 0x03, 0x1E, 0x00, 
  0x00, 0x1C, 0x80, 0x07, 0x0E, 0x00, 0x00, 0x38, 0x00, 0x0F, 0x0F, 0x00, 
  0x00, 0x78, 0x00, 0x1E, 0x06, 0x00, 0x00, 0xF0, 0x00, 0x3C, 0x04, 0x00, 
  0x00, 0xE0, 0x01, 0x78, 0x00, 0x00, 0x00, 0xC0, 0x07, 0xF8, 0x00, 0x00, 
  0x00, 0x80, 0xFF, 0xFF, 0x01, 0x00, 0x00, 0x00, 0xFF, 0xFF, 0x03, 0x00, 
  0x00, 0x00, 0xFC, 0xCF, 0x07, 0x00, 0x00, 0x00, 0xC0, 0x81, 0x0F, 0x00, 
  0x00, 0x00, 0xC0, 0x01, 0x1F, 0x00, 0x00, 0x00, 0xC0, 0x01, 0x3E, 0x00, 
  0x00, 0x00, 0xC0, 0x01, 0x7C, 0x00, 0x00, 0x00, 0xC0, 0x01, 0xF8, 0x00, 
  0x00, 0x00, 0xC0, 0x01, 0xF0, 0x01, 0x00, 0x00, 0xC0, 0x01, 0xE0, 0x03, 
  0x00, 0x00, 0x00, 0x00, 0xC0, 0x07, 0x00, 0x00, 0x00, 0x00, 0x80, 0x07, 
  0x00, 0x00, 0x00, 0x00, 0x00, 0x03, 0x00, 0x00, 0x00, 0x00, 0x00, 0x00, 
  0x00, 0x00, 0x00, 0x00, 0x00, 0x00, 0x00, 0x00, 0x00, 0x00, 0x00, 0x00, 
  };
